# xmcd
#
# Track frame offsets: 
#        150
#        1787
#        12045
#        36165
#        51347
#        58015
#        67117
#        83632
#        96005
#        117770
#        127110
#        137877
#        153455
#
# Disc length: 2189 seconds
#
# Revision: 0
# Processed by: cddbd v1.4PL0 Copyright (c) Steve Scherf et al.
# Submitted via: ExactAudioCopy v0.95a3
#
DISCID=a8088b0d
DTITLE=Various Artist - Hudson and Harrigans's Holiday Hits
DYEAR=1900
DGENRE=Country
TTITLE0=Welcome from Hudson and Harrigan
TTITLE1=Jim-Bob Goes Caroling - Hudson and Harrigan
TTITLE2=The Christmas Guest - Grandpa Jones
TTITLE3=12 Aggie Days of Christmas - Hudson and Harrigan
TTITLE4=Jungle Bells - Laughing All The Way
TTITLE5=The Cowboy Christmas Prayer - Bob Rivers
TTITLE6=The 12 Pains of Christmas - Hudson and Harrigan
TTITLE7=Politically Correct Christmas - Hudson and Harrigan
TTITLE8=Frontier Christmas - Hudson and Landry
TTITLE9=Jim-Bob's Run Cake Recipe - Hudson and Harrigan
TTITLE10=The 12 Redneck Days of Christmas - Jeff Foxworthy
TTITLE11=Bubba Claus - CD Exclusive - Hudson and Harrigan
TTITLE12=A Christmas Gift - Pinkard and Bowden
EXTD=
EXTT0=
EXTT1=
EXTT2=
EXTT3=
EXTT4=
EXTT5=
EXTT6=
EXTT7=
EXTT8=
EXTT9=
EXTT10=
EXTT11=
EXTT12=
PLAYORDER=
